HIERARCHY
ROOT Hips
{
 OFFSET 0.000000 0.000000 0.000000
 CHANNELS 6 Xposition Yposition Zposition Yrotation Xrotation Zrotation
 JOINT Chest
 {
  OFFSET 0.000000 9.585900 0.002600
  CHANNELS 3 Yrotation Xrotation Zrotation
  JOINT Chest2
  {
   OFFSET 0.000000 9.601200 -0.005300
   CHANNELS 3 Yrotation Xrotation Zrotation
   JOINT Chest3
   {
    OFFSET 0.000000 9.561800 0.000000
    CHANNELS 3 Yrotation Xrotation Zrotation
    JOINT Chest4
    {
     OFFSET 0.000000 9.552100 0.000000
     CHANNELS 3 Yrotation Xrotation Zrotation
     JOINT Neck
     {
      OFFSET 0.000000 14.453000 0.000000
      CHANNELS 3 Yrotation Xrotation Zrotation
      JOINT Head
      {
       OFFSET 0.000000 8.936500 -0.011300
       CHANNELS 3 Yrotation Xrotation Zrotation
       End Site
       {
        OFFSET 0.000000 17.073600 -0.006000
       }
      }
     }
     JOINT RightCollar
     {
      OFFSET -2.921100 9.558500 0.000000
      CHANNELS 3 Yrotation Xrotation Zrotation
      JOINT RightShoulder
      {
       OFFSET -13.519700 0.000000 0.000000
       CHANNELS 3 Yrotation Xrotation Zrotation
       JOINT RightElbow
       {
        OFFSET 0.000000 -29.696600 0.000000
        CHANNELS 3 Yrotation Xrotation Zrotation
        JOINT RightWrist
        {
         OFFSET 0.000000 -24.004700 0.000000
         CHANNELS 3 Yrotation Xrotation Zrotation
         End Site
         {
          OFFSET 0.000000 -17.728500 0.000000
         }
        }
       }
      }
     }
     JOINT LeftCollar
     {
      OFFSET 2.921100 9.558500 0.000000
      CHANNELS 3 Yrotation Xrotation Zrotation
      JOINT LeftShoulder
      {
       OFFSET 13.519700 0.000000 0.000000
       CHANNELS 3 Yrotation Xrotation Zrotation
       JOINT LeftElbow
       {
        OFFSET 0.000000 -29.696600 0.000000
        CHANNELS 3 Yrotation Xrotation Zrotation
        JOINT LeftWrist
        {
         OFFSET 0.000000 -24.004700 0.000000
         CHANNELS 3 Yrotation Xrotation Zrotation
         End Site
         {
          OFFSET 0.000000 -17.728500 0.000000
         }
        }
       }
      }
     }
    }
   }
  }
 }
 JOINT RightHip
 {
  OFFSET -7.771700 -0.012900 -0.001300
  CHANNELS 3 Yrotation Xrotation Zrotation
  JOINT RightKnee
  {
   OFFSET 0.000000 -40.869800 0.001200
   CHANNELS 3 Yrotation Xrotation Zrotation
   JOINT RightAnkle
   {
    OFFSET 0.000000 -39.717900 0.002100
    CHANNELS 3 Yrotation Xrotation Zrotation
    JOINT RightToe
    {
     OFFSET 0.000000 -4.965400 11.033500
     CHANNELS 3 Yrotation Xrotation Zrotation
     End Site
     {
      OFFSET 0.000000 -1.423100 5.872300
     }
    }
   }
  }
 }
 JOINT LeftHip
 {
  OFFSET 7.771700 -0.012900 -0.001300
  CHANNELS 3 Yrotation Xrotation Zrotation
  JOINT LeftKnee
  {
   OFFSET 0.000000 -40.869800 0.001200
   CHANNELS 3 Yrotation Xrotation Zrotation
   JOINT LeftAnkle
   {
    OFFSET 0.000000 -39.717900 0.002100
    CHANNELS 3 Yrotation Xrotation Zrotation
    JOINT LeftToe
    {
     OFFSET 0.000000 -4.965400 11.033500
     CHANNELS 3 Yrotation Xrotation Zrotation
     End Site
     {
      OFFSET 0.000000 -1.423100 5.872300
     }
    }
   }
  }
 }
}
MOTION
Frames: 15
Frame Time: 0.008333
0.000000 85.388000 0.000000 0.000000 -5.767877 0.000000 0.000000 11.653817 0.000000 0.000000 -5.885947 0.000000 0.000000 -0.000000 0.000000 0.000000 -0.000000 0.000000 0.000000 12.528835 0.000000 0.000000 0.711642 0.000000 0.000000 -0.000000 0.000000 0.000000 0.000000 -90.000000 0.000000 -2.309062 0.000000 0.000000 2.309062 0.000000 0.000000 -0.000000 0.000000 0.000000 -0.000000 90.000000 0.000000 -2.309062 0.000000 0.000000 2.309062 0.000000 0.000000 8.520406 0.000000 0.000000 1.905762 0.000000 -0.000000 -4.658285 0.000000 0.000000 -0.000000 0.000000 0.000000 8.520406 0.000000 0.000000 1.905762 0.000000 -0.000000 -4.658285 0.000000 0.000000 -0.000000 0.000000
18.438620 49.993437 56.160052 172.156917 -32.505247 -4.964596 5.082814 21.166740 10.714168 0.491936 3.195086 1.328784 0.845185 5.133296 2.164438 3.927499 17.840843 8.157148 0.883369 23.071672 -2.260273 2.143698 7.062889 -4.291158 -5.066584 -1.867133 -9.967878 19.371094 -6.481081 -8.751391 155.567836 -62.715799 -153.238457 1.296194 -10.958291 26.676019 -10.837570 -1.605631 3.726558 -0.494360 -3.490921 7.235369 163.989030 -67.380585 -177.603206 19.105412 -9.950549 -26.624932 -0.971476 -47.764517 9.377333 -136.577399 84.149597 -124.561231 -0.774174 -14.901112 -5.193293 -0.116328 0.690846 -0.066906 -7.829359 -51.437403 15.563954 -153.883844 81.340113 -161.911973 0.083007 -17.178394 7.467323 -0.225876 -0.462748 -0.116506
18.441367 49.992859 56.159105 172.130943 -32.506428 -4.952106 5.092252 21.181491 10.705059 0.498865 3.190568 1.330756 0.848447 5.137670 2.164258 3.948467 17.871192 8.152532 0.919439 23.040120 -2.238239 2.237046 7.053209 -4.269762 -5.085824 -1.895430 -9.956160 19.375771 -6.475932 -8.734594 155.619436 -62.737826 -153.274217 1.258670 -10.891519 26.609545 -10.857352 -1.632104 3.740644 -0.525407 -3.465486 7.246209 163.958291 -67.356187 -177.549746 19.105079 -9.962482 -26.514781 -0.958548 -47.767770 9.384087 -136.579638 84.148463 -124.564947 -0.761829 -14.894775 -5.194539 -0.124622 0.686872 -0.069974 -7.801703 -51.437570 15.548312 -153.975401 81.340903 -161.983272 0.079730 -17.185549 7.454941 -0.215055 -0.460833 -0.118042
18.445310 49.992092 56.157185 172.120574 -32.510528 -4.950341 5.101118 21.186332 10.708002 0.492030 3.193405 1.327875 0.850199 5.140453 2.163748 3.956083 17.872722 8.151626 0.941394 23.036694 -2.228804 2.274349 7.047393 -4.258569 -5.096945 -1.889464 -9.955097 19.380802 -6.468920 -8.717109 155.791641 -62.844607 -153.398765 1.310803 -10.865270 26.485537 -10.877597 -1.612409 3.732904 -0.526521 -3.471169 7.260676 163.920183 -67.353335 -177.505681 19.076742 -9.937813 -26.445262 -0.970201 -47.761687 9.400831 -136.584874 84.149502 -124.575432 -0.750772 -14.896800 -5.199180 -0.132044 0.687743 -0.072426 -7.795295 -51.435126 15.545146 -154.004480 81.335427 -161.999439 0.081685 -17.190647 7.443615 -0.218401 -0.460853 -0.113976
18.450751 49.990727 56.154817 172.104881 -32.515572 -4.950393 5.102003 21.194351 10.706415 0.504331 3.192398 1.331625 0.850677 5.141293 2.163520 3.955222 17.877460 8.148301 0.985615 23.038360 -2.204662 2.293233 7.037795 -4.252006 -5.117565 -1.872656 -9.958264 19.395444 -6.450751 -8.675589 155.938739 -62.925881 -153.498334 1.365982 -10.835355 26.332655 -10.900036 -1.597217 3.725141 -0.524085 -3.469942 7.272608 163.931333 -67.345963 -177.498821 19.057040 -9.901869 -26.405866 -0.974661 -47.756796 9.419549 -136.599578 84.151103 -124.587015 -0.745388 -14.896359 -5.207695 -0.135189 0.686188 -0.071716 -7.799756 -51.430782 15.560454 -154.011384 81.324850 -162.002677 0.084941 -17.196212 7.444850 -0.216336 -0.461144 -0.111279
18.457061 49.988154 56.152849 172.089215 -32.514606 -4.952458 5.091222 21.214505 10.702463 0.520141 3.181693 1.333879 0.851473 5.143859 2.162850 3.957166 17.882571 8.144422 1.032828 23.035153 -2.182705 2.365917 7.022271 -4.228529 -5.133325 -1.861684 -9.959583 19.418727 -6.434737 -8.632438 156.014205 -62.980256 -153.550370 1.382541 -10.791768 26.181975 -10.912879 -1.591397 3.718230 -0.540738 -3.453988 7.277576 163.992283 -67.330939 -177.523588 19.044357 -9.894895 -26.392111 -0.976571 -47.758636 9.435858 -136.635918 84.152517 -124.609520 -0.748792 -14.897826 -5.225532 -0.124519 0.686125 -0.066667 -7.821234 -51.433511 15.586865 -153.970417 81.310028 -161.964378 0.103781 -17.196817 7.457593 -0.213902 -0.467782 -0.131784
18.462548 49.984104 56.151404 172.072648 -32.505273 -4.946558 5.094132 21.221211 10.698525 0.505168 3.196577 1.329161 0.855433 5.143246 2.160559 3.965458 17.877168 8.137065 1.081195 23.022694 -2.163887 2.440696 7.004950 -4.201200 -5.165932 -1.823702 -9.941526 19.470360 -6.452724 -8.612968 156.003307 -62.980141 -153.535185 1.339820 -10.715404 26.049939 -10.915265 -1.593121 3.718771 -0.558917 -3.427587 7.268003 164.071266 -67.339248 -177.569973 18.954150 -9.773307 -26.381270 -0.981669 -47.772725 9.453811 -136.647507 84.148329 -124.625757 -0.737675 -14.896812 -5.228888 -0.137132 0.685802 -0.068549 -7.842057 -51.447225 15.610663 -153.876894 81.291475 -161.880820 0.132227 -17.192916 7.461337 -0.214238 -0.478236 -0.141076
18.467023 49.978337 56.151348 172.056385 -32.482207 -4.933518 5.094080 21.217299 10.685794 0.505675 3.196546 1.328315 0.864937 5.129922 2.162144 3.956925 17.892495 8.130398 1.121204 23.011248 -2.148727 2.514132 6.987731 -4.177293 -5.176792 -1.810529 -9.925922 19.500877 -6.440161 -8.581558 155.978617 -62.979065 -153.512257 1.293456 -10.645515 25.957143 -10.921143 -1.590531 3.717011 -0.546368 -3.436932 7.267118 164.111623 -67.347319 -177.606159 18.893376 -9.695468 -26.401501 -0.995309 -47.805438 9.468304 -136.750480 84.144525 -124.736761 -0.738222 -14.885528 -5.240986 -0.136419 0.675083 -0.066190 -7.896606 -51.473484 15.641196 -153.851589 81.276438 -161.878116 0.172256 -17.184340 7.452082 -0.222651 -0.490999 -0.147426
18.474002 49.973524 56.149993 172.044630 -32.469863 -4.934909 5.098586 21.223253 10.688269 0.507797 3.192123 1.327685 0.860225 5.134295 2.160001 3.959908 17.893183 8.126938 1.147093 22.997426 -2.141893 2.648576 6.965292 -4.151138 -5.184128 -1.799088 -9.909791 19.537235 -6.421078 -8.544931 156.056170 -63.100656 -153.590438 1.357417 -10.678588 25.922054 -10.921888 -1.590592 3.711585 -0.536910 -3.447845 7.259512 164.272834 -67.395237 -177.749532 18.894985 -9.714028 -26.442081 -1.002527 -47.821003 9.481014 -136.792122 84.137663 -124.761303 -0.733332 -14.888812 -5.267339 -0.126464 0.675184 -0.059501 -7.918461 -51.490518 15.664056 -153.791108 81.258643 -161.816814 0.198636 -17.188918 7.448606 -0.219961 -0.492167 -0.148244
18.480497 49.968198 56.149314 172.027996 -32.452664 -4.930268 5.109534 21.214053 10.689552 0.504286 3.198537 1.326868 0.859340 5.136244 2.156961 3.959807 17.902972 8.120275 1.174399 22.974670 -2.131643 2.720139 6.952999 -4.129701 -5.185156 -1.797381 -9.886307 19.559948 -6.399074 -8.506428 156.030941 -63.114203 -153.574730 1.355477 -10.674448 25.935727 -10.923787 -1.600949 3.703219 -0.526635 -3.455847 7.254345 164.391479 -67.412412 -177.859207 18.882504 -9.748350 -26.448918 -1.003401 -47.843766 9.494022 -136.821750 84.132658 -124.786417 -0.720710 -14.891266 -5.276430 -0.121288 0.679756 -0.059424 -7.932004 -51.512871 15.680909 -153.767036 81.243123 -161.789503 0.217713 -17.196375 7.437317 -0.224080 -0.487166 -0.130595
18.485828 49.962707 56.149047 172.013038 -32.432549 -4.919585 5.116649 21.201796 10.683951 0.497707 3.205787 1.325955 0.856939 5.144334 2.154590 3.972131 17.884095 8.118845 1.196384 22.977924 -2.121496 2.741585 6.946601 -4.108632 -5.195121 -1.776361 -9.867207 19.571240 -6.375562 -8.466062 156.049277 -63.160841 -153.614884 1.422982 -10.735894 25.978197 -10.928115 -1.602123 3.698509 -0.523337 -3.454416 7.246292 164.447361 -67.417985 -177.911953 18.867466 -9.804233 -26.419146 -1.004029 -47.870627 9.497325 -136.891202 84.130164 -124.853646 -0.706802 -14.890108 -5.287263 -0.136501 0.678682 -0.061178 -7.959712 -51.537646 15.695806 -153.810368 81.232962 -161.837276 0.233060 -17.195811 7.430395 -0.224105 -0.491626 -0.135802
18.491614 49.957627 56.149042 171.989991 -32.414657 -4.907745 5.127169 21.194890 10.680154 0.501689 3.199253 1.325590 0.859442 5.142452 2.154310 3.965327 17.892069 8.116028 1.216020 22.979244 -2.102632 2.744136 6.939319 -4.111907 -5.191154 -1.773922 -9.857235 19.559091 -6.340034 -8.404456 156.049852 -63.188474 -153.629164 1.429164 -10.727566 26.134011 -10.931216 -1.618538 3.676867 -0.529619 -3.447162 7.244971 164.599001 -67.428116 -178.030996 18.886887 -9.859874 -26.369766 -1.011785 -47.895680 9.505223 -137.033143 84.135513 -124.982860 -0.723544 -14.879737 -5.313558 -0.119553 0.667087 -0.058131 -7.954218 -51.559583 15.699032 -153.906503 81.228003 -161.924362 0.230281 -17.207378 7.429491 -0.222557 -0.485994 -0.145597
18.496996 49.953299 56.148635 171.967669 -32.402767 -4.894246 5.122031 21.199354 10.671211 0.519979 3.189327 1.323307 0.855177 5.145422 2.153160 3.956720 17.895695 8.111384 1.234113 22.973602 -2.101420 2.750835 6.943021 -4.100831 -5.180689 -1.771322 -9.848085 19.541310 -6.302100 -8.340688 156.018464 -63.190171 -153.603904 1.465413 -10.726112 26.250849 -10.915168 -1.629837 3.669268 -0.559991 -3.449149 7.218611 164.797099 -67.441192 -178.156831 18.928009 -9.893577 -26.324898 -1.009510 -47.913914 9.510219 -137.117696 84.137070 -125.064930 -0.715669 -14.875781 -5.323099 -0.121110 0.664046 -0.062417 -7.939594 -51.574975 15.696711 -154.003587 81.224196 -162.011110 0.222808 -17.217954 7.419600 -0.213983 -0.479913 -0.136375
18.502079 49.950105 56.147247 171.942131 -32.401886 -4.877309 5.136464 21.200475 10.665989 0.511667 3.192640 1.324355 0.855165 5.144874 2.151486 3.965589 17.893721 8.108423 1.228742 22.983159 -2.091831 2.754562 6.958568 -4.085321 -5.198924 -1.748821 -9.828565 19.518224 -6.275240 -8.292704 155.985806 -63.188341 -153.561145 1.500286 -10.725030 26.332789 -10.911067 -1.632993 3.665998 -0.575050 -3.451340 7.206790 164.840522 -67.438277 -178.163875 18.942591 -9.912939 -26.257234 -0.997275 -47.919958 9.513300 -137.159666 84.135205 -125.109483 -0.696023 -14.878071 -5.327277 -0.133143 0.667280 -0.067200 -7.913380 -51.579786 15.676356 -154.212418 81.226347 -162.196192 0.200374 -17.228041 7.410398 -0.205977 -0.474817 -0.137537
18.507142 49.946206 56.147959 171.918076 -32.390738 -4.863688 5.150710 21.190471 10.662136 0.507672 3.194866 1.324110 0.848964 5.148675 2.150634 3.978183 17.888802 8.107885 1.220392 22.996290 -2.083101 2.740021 6.978802 -4.069629 -5.237033 -1.703864 -9.797083 19.457777 -6.233850 -8.224272 155.930807 -63.130193 -153.444481 1.524920 -10.725328 26.371951 -10.908864 -1.642439 3.643363 -0.593339 -3.448007 7.214019 164.850406 -67.428610 -178.140222 18.946099 -9.908335 -26.190578 -0.991276 -47.935349 9.520763 -137.215590 84.141397 -125.162616 -0.695736 -14.882272 -5.339036 -0.132376 0.673030 -0.067148 -7.895067 -51.593878 15.672596 -154.280145 81.223940 -162.254942 0.203667 -17.237619 7.404822 -0.216585 -0.467892 -0.133377
